<mxfile host="app.diagrams.net" agent="Mozilla/5.0 (Windows NT 10.0; Win64; x64) AppleWebKit/537.36 (KHTML, like Gecko) Chrome/136.0.0.0 Safari/537.36" version="27.1.0">
  <diagram name="Page-1" id="92pI1xVuBEQ3TKeV5qQN">
    <mxGraphModel dx="1585" dy="871" grid="1" gridSize="10" guides="1" tooltips="1" connect="1" arrows="1" fold="1" page="1" pageScale="1" pageWidth="1000" pageHeight="700" math="0" shadow="0">
      <root>
        <mxCell id="0" />
        <mxCell id="1" parent="0" />
        <mxCell id="tXW641NiQ6VJJEoscxrL-2" value="" style="rounded=1;whiteSpace=wrap;html=1;fillColor=none;dashed=1;" vertex="1" parent="1">
          <mxGeometry x="40" y="200" width="180" height="440" as="geometry" />
        </mxCell>
        <mxCell id="tXW641NiQ6VJJEoscxrL-3" value="&lt;font style=&quot;font-size: 24px;&quot;&gt;Source&lt;/font&gt;" style="rounded=0;whiteSpace=wrap;html=1;strokeColor=none;" vertex="1" parent="1">
          <mxGeometry x="64.5" y="170" width="120" height="60" as="geometry" />
        </mxCell>
        <mxCell id="tXW641NiQ6VJJEoscxrL-4" value="" style="image;aspect=fixed;html=1;points=[];align=center;fontSize=12;image=img/lib/azure2/general/Folder_Blank.svg;" vertex="1" parent="1">
          <mxGeometry x="90.5" y="312" width="69" height="56.00000000000001" as="geometry" />
        </mxCell>
        <mxCell id="tXW641NiQ6VJJEoscxrL-15" style="edgeStyle=orthogonalEdgeStyle;rounded=0;orthogonalLoop=1;jettySize=auto;html=1;entryX=0;entryY=0.5;entryDx=0;entryDy=0;" edge="1" parent="1" target="tXW641NiQ6VJJEoscxrL-12">
          <mxGeometry relative="1" as="geometry">
            <mxPoint x="172.45999999999992" y="340.0434782608696" as="sourcePoint" />
          </mxGeometry>
        </mxCell>
        <mxCell id="tXW641NiQ6VJJEoscxrL-16" style="edgeStyle=orthogonalEdgeStyle;rounded=0;orthogonalLoop=1;jettySize=auto;html=1;entryX=0;entryY=0.5;entryDx=0;entryDy=0;" edge="1" parent="1" target="tXW641NiQ6VJJEoscxrL-13">
          <mxGeometry relative="1" as="geometry">
            <mxPoint x="172.45999999999992" y="340" as="sourcePoint" />
          </mxGeometry>
        </mxCell>
        <mxCell id="tXW641NiQ6VJJEoscxrL-17" style="edgeStyle=orthogonalEdgeStyle;rounded=0;orthogonalLoop=1;jettySize=auto;html=1;entryX=0;entryY=0.5;entryDx=0;entryDy=0;" edge="1" parent="1" target="tXW641NiQ6VJJEoscxrL-14">
          <mxGeometry relative="1" as="geometry">
            <mxPoint x="160" y="340" as="sourcePoint" />
          </mxGeometry>
        </mxCell>
        <mxCell id="tXW641NiQ6VJJEoscxrL-6" value="&lt;font style=&quot;font-size: 22px;&quot;&gt;CRM&lt;/font&gt;" style="text;html=1;align=center;verticalAlign=middle;whiteSpace=wrap;rounded=0;" vertex="1" parent="1">
          <mxGeometry x="95" y="370" width="60" height="30" as="geometry" />
        </mxCell>
        <mxCell id="tXW641NiQ6VJJEoscxrL-21" style="edgeStyle=orthogonalEdgeStyle;rounded=0;orthogonalLoop=1;jettySize=auto;html=1;" edge="1" parent="1" source="tXW641NiQ6VJJEoscxrL-7" target="tXW641NiQ6VJJEoscxrL-18">
          <mxGeometry relative="1" as="geometry" />
        </mxCell>
        <mxCell id="tXW641NiQ6VJJEoscxrL-22" style="edgeStyle=orthogonalEdgeStyle;rounded=0;orthogonalLoop=1;jettySize=auto;html=1;entryX=0;entryY=0.5;entryDx=0;entryDy=0;" edge="1" parent="1" source="tXW641NiQ6VJJEoscxrL-7" target="tXW641NiQ6VJJEoscxrL-19">
          <mxGeometry relative="1" as="geometry" />
        </mxCell>
        <mxCell id="tXW641NiQ6VJJEoscxrL-23" style="edgeStyle=orthogonalEdgeStyle;rounded=0;orthogonalLoop=1;jettySize=auto;html=1;entryX=0;entryY=0.5;entryDx=0;entryDy=0;" edge="1" parent="1" source="tXW641NiQ6VJJEoscxrL-7" target="tXW641NiQ6VJJEoscxrL-20">
          <mxGeometry relative="1" as="geometry" />
        </mxCell>
        <mxCell id="tXW641NiQ6VJJEoscxrL-7" value="" style="image;aspect=fixed;html=1;points=[];align=center;fontSize=12;image=img/lib/azure2/general/Folder_Blank.svg;" vertex="1" parent="1">
          <mxGeometry x="95" y="490" width="69" height="56.00000000000001" as="geometry" />
        </mxCell>
        <mxCell id="tXW641NiQ6VJJEoscxrL-9" value="&lt;span style=&quot;font-size: 22px;&quot;&gt;ERP&lt;/span&gt;" style="text;html=1;align=center;verticalAlign=middle;whiteSpace=wrap;rounded=0;" vertex="1" parent="1">
          <mxGeometry x="100" y="550" width="60" height="30" as="geometry" />
        </mxCell>
        <mxCell id="tXW641NiQ6VJJEoscxrL-10" value="" style="rounded=1;whiteSpace=wrap;html=1;fillColor=none;strokeColor=#d79b00;" vertex="1" parent="1">
          <mxGeometry x="270" y="240" width="190" height="400" as="geometry" />
        </mxCell>
        <mxCell id="tXW641NiQ6VJJEoscxrL-11" value="&lt;font style=&quot;font-size: 25px;&quot;&gt;Bronze Layer&lt;/font&gt;" style="rounded=1;whiteSpace=wrap;html=1;fillColor=#ffe6cc;strokeColor=#d79b00;" vertex="1" parent="1">
          <mxGeometry x="277.5" y="190" width="175" height="40" as="geometry" />
        </mxCell>
        <mxCell id="tXW641NiQ6VJJEoscxrL-33" style="edgeStyle=orthogonalEdgeStyle;rounded=0;orthogonalLoop=1;jettySize=auto;html=1;entryX=0;entryY=0.5;entryDx=0;entryDy=0;" edge="1" parent="1" source="tXW641NiQ6VJJEoscxrL-12" target="tXW641NiQ6VJJEoscxrL-27">
          <mxGeometry relative="1" as="geometry" />
        </mxCell>
        <mxCell id="tXW641NiQ6VJJEoscxrL-12" value="&lt;font style=&quot;font-size: 16px;&quot;&gt;crm_sales_details&lt;/font&gt;" style="rounded=1;whiteSpace=wrap;html=1;fillColor=#ffe6cc;strokeColor=#d79b00;" vertex="1" parent="1">
          <mxGeometry x="292.5" y="260" width="145" height="40" as="geometry" />
        </mxCell>
        <mxCell id="tXW641NiQ6VJJEoscxrL-34" style="edgeStyle=orthogonalEdgeStyle;rounded=0;orthogonalLoop=1;jettySize=auto;html=1;" edge="1" parent="1" source="tXW641NiQ6VJJEoscxrL-13" target="tXW641NiQ6VJJEoscxrL-28">
          <mxGeometry relative="1" as="geometry" />
        </mxCell>
        <mxCell id="tXW641NiQ6VJJEoscxrL-13" value="&lt;font style=&quot;font-size: 16px;&quot;&gt;crm_cust_info&lt;/font&gt;" style="rounded=1;whiteSpace=wrap;html=1;fillColor=#ffe6cc;strokeColor=#d79b00;" vertex="1" parent="1">
          <mxGeometry x="292.5" y="320" width="145" height="40" as="geometry" />
        </mxCell>
        <mxCell id="tXW641NiQ6VJJEoscxrL-35" style="edgeStyle=orthogonalEdgeStyle;rounded=0;orthogonalLoop=1;jettySize=auto;html=1;" edge="1" parent="1" source="tXW641NiQ6VJJEoscxrL-14" target="tXW641NiQ6VJJEoscxrL-29">
          <mxGeometry relative="1" as="geometry" />
        </mxCell>
        <mxCell id="tXW641NiQ6VJJEoscxrL-14" value="&lt;font style=&quot;font-size: 16px;&quot;&gt;crm_prd_info&lt;/font&gt;" style="rounded=1;whiteSpace=wrap;html=1;fillColor=#ffe6cc;strokeColor=#d79b00;" vertex="1" parent="1">
          <mxGeometry x="292.5" y="380" width="145" height="40" as="geometry" />
        </mxCell>
        <mxCell id="tXW641NiQ6VJJEoscxrL-36" style="edgeStyle=orthogonalEdgeStyle;rounded=0;orthogonalLoop=1;jettySize=auto;html=1;" edge="1" parent="1" source="tXW641NiQ6VJJEoscxrL-18" target="tXW641NiQ6VJJEoscxrL-30">
          <mxGeometry relative="1" as="geometry" />
        </mxCell>
        <mxCell id="tXW641NiQ6VJJEoscxrL-18" value="&lt;span style=&quot;color: rgb(51, 51, 51); font-size: 16px;&quot;&gt;erp_cust_az12&lt;/span&gt;" style="rounded=1;whiteSpace=wrap;html=1;fillColor=#ffe6cc;strokeColor=#d79b00;" vertex="1" parent="1">
          <mxGeometry x="292.5" y="460" width="145" height="40" as="geometry" />
        </mxCell>
        <mxCell id="tXW641NiQ6VJJEoscxrL-37" style="edgeStyle=orthogonalEdgeStyle;rounded=0;orthogonalLoop=1;jettySize=auto;html=1;" edge="1" parent="1" source="tXW641NiQ6VJJEoscxrL-19" target="tXW641NiQ6VJJEoscxrL-31">
          <mxGeometry relative="1" as="geometry" />
        </mxCell>
        <mxCell id="tXW641NiQ6VJJEoscxrL-19" value="&lt;span style=&quot;color: rgb(51, 51, 51); font-size: 16px;&quot;&gt;ep_loc_a101&lt;/span&gt;" style="rounded=1;whiteSpace=wrap;html=1;fillColor=#ffe6cc;strokeColor=#d79b00;" vertex="1" parent="1">
          <mxGeometry x="292.5" y="520" width="145" height="40" as="geometry" />
        </mxCell>
        <mxCell id="tXW641NiQ6VJJEoscxrL-38" style="edgeStyle=orthogonalEdgeStyle;rounded=0;orthogonalLoop=1;jettySize=auto;html=1;" edge="1" parent="1" source="tXW641NiQ6VJJEoscxrL-20" target="tXW641NiQ6VJJEoscxrL-32">
          <mxGeometry relative="1" as="geometry" />
        </mxCell>
        <mxCell id="tXW641NiQ6VJJEoscxrL-20" value="&lt;span style=&quot;color: rgb(51, 51, 51); font-size: 16px;&quot;&gt;erp_px_cat_g1v2&lt;/span&gt;" style="rounded=1;whiteSpace=wrap;html=1;fillColor=#ffe6cc;strokeColor=#d79b00;" vertex="1" parent="1">
          <mxGeometry x="292.5" y="580" width="145" height="40" as="geometry" />
        </mxCell>
        <mxCell id="tXW641NiQ6VJJEoscxrL-25" value="" style="rounded=1;whiteSpace=wrap;html=1;fillColor=none;strokeColor=#666666;fontColor=#333333;" vertex="1" parent="1">
          <mxGeometry x="520" y="240" width="190" height="400" as="geometry" />
        </mxCell>
        <mxCell id="tXW641NiQ6VJJEoscxrL-26" value="&lt;span style=&quot;font-size: 25px;&quot;&gt;Silver Layer&lt;/span&gt;" style="rounded=1;whiteSpace=wrap;html=1;fillColor=#f5f5f5;strokeColor=#666666;fontColor=#333333;" vertex="1" parent="1">
          <mxGeometry x="527.5" y="190" width="175" height="40" as="geometry" />
        </mxCell>
        <mxCell id="tXW641NiQ6VJJEoscxrL-49" style="rounded=0;orthogonalLoop=1;jettySize=auto;html=1;jumpStyle=gap;" edge="1" parent="1" source="tXW641NiQ6VJJEoscxrL-27" target="tXW641NiQ6VJJEoscxrL-41">
          <mxGeometry relative="1" as="geometry" />
        </mxCell>
        <mxCell id="tXW641NiQ6VJJEoscxrL-27" value="&lt;font style=&quot;font-size: 16px;&quot;&gt;crm_sales_details&lt;/font&gt;" style="rounded=1;whiteSpace=wrap;html=1;fillColor=#f5f5f5;strokeColor=#666666;fontColor=#333333;" vertex="1" parent="1">
          <mxGeometry x="542.5" y="260" width="145" height="40" as="geometry" />
        </mxCell>
        <mxCell id="tXW641NiQ6VJJEoscxrL-50" style="rounded=0;orthogonalLoop=1;jettySize=auto;html=1;entryX=0;entryY=0.5;entryDx=0;entryDy=0;jumpStyle=gap;" edge="1" parent="1" source="tXW641NiQ6VJJEoscxrL-28" target="tXW641NiQ6VJJEoscxrL-42">
          <mxGeometry relative="1" as="geometry" />
        </mxCell>
        <mxCell id="tXW641NiQ6VJJEoscxrL-28" value="&lt;font style=&quot;font-size: 16px;&quot;&gt;crm_cust_info&lt;/font&gt;" style="rounded=1;whiteSpace=wrap;html=1;fillColor=#f5f5f5;strokeColor=#666666;fontColor=#333333;" vertex="1" parent="1">
          <mxGeometry x="542.5" y="320" width="145" height="40" as="geometry" />
        </mxCell>
        <mxCell id="tXW641NiQ6VJJEoscxrL-53" style="rounded=0;orthogonalLoop=1;jettySize=auto;html=1;entryX=0;entryY=0.5;entryDx=0;entryDy=0;jumpStyle=gap;exitX=1;exitY=1;exitDx=0;exitDy=0;" edge="1" parent="1" source="tXW641NiQ6VJJEoscxrL-29" target="tXW641NiQ6VJJEoscxrL-43">
          <mxGeometry relative="1" as="geometry" />
        </mxCell>
        <mxCell id="tXW641NiQ6VJJEoscxrL-29" value="&lt;font style=&quot;font-size: 16px;&quot;&gt;crm_prd_info&lt;/font&gt;" style="rounded=1;whiteSpace=wrap;html=1;fillColor=#f5f5f5;strokeColor=#666666;fontColor=#333333;" vertex="1" parent="1">
          <mxGeometry x="542.5" y="380" width="145" height="40" as="geometry" />
        </mxCell>
        <mxCell id="tXW641NiQ6VJJEoscxrL-30" value="&lt;span style=&quot;font-size: 16px;&quot;&gt;erp_cust_az12&lt;/span&gt;" style="rounded=1;whiteSpace=wrap;html=1;fillColor=#f5f5f5;strokeColor=#666666;fontColor=#333333;" vertex="1" parent="1">
          <mxGeometry x="542.5" y="460" width="145" height="40" as="geometry" />
        </mxCell>
        <mxCell id="tXW641NiQ6VJJEoscxrL-52" style="rounded=0;orthogonalLoop=1;jettySize=auto;html=1;entryX=0;entryY=1;entryDx=0;entryDy=0;jumpStyle=gap;" edge="1" parent="1" source="tXW641NiQ6VJJEoscxrL-31" target="tXW641NiQ6VJJEoscxrL-42">
          <mxGeometry relative="1" as="geometry" />
        </mxCell>
        <mxCell id="tXW641NiQ6VJJEoscxrL-31" value="&lt;span style=&quot;font-size: 16px;&quot;&gt;ep_loc_a101&lt;/span&gt;" style="rounded=1;whiteSpace=wrap;html=1;fillColor=#f5f5f5;strokeColor=#666666;fontColor=#333333;" vertex="1" parent="1">
          <mxGeometry x="542.5" y="520" width="145" height="40" as="geometry" />
        </mxCell>
        <mxCell id="tXW641NiQ6VJJEoscxrL-54" style="rounded=0;orthogonalLoop=1;jettySize=auto;html=1;entryX=0;entryY=0.75;entryDx=0;entryDy=0;jumpStyle=gap;" edge="1" parent="1" source="tXW641NiQ6VJJEoscxrL-32" target="tXW641NiQ6VJJEoscxrL-43">
          <mxGeometry relative="1" as="geometry" />
        </mxCell>
        <mxCell id="tXW641NiQ6VJJEoscxrL-32" value="&lt;span style=&quot;font-size: 16px;&quot;&gt;erp_px_cat_g1v2&lt;/span&gt;" style="rounded=1;whiteSpace=wrap;html=1;fillColor=#f5f5f5;strokeColor=#666666;fontColor=#333333;" vertex="1" parent="1">
          <mxGeometry x="542.5" y="580" width="145" height="40" as="geometry" />
        </mxCell>
        <mxCell id="tXW641NiQ6VJJEoscxrL-39" value="" style="rounded=1;whiteSpace=wrap;html=1;fillColor=none;strokeColor=#d6b656;" vertex="1" parent="1">
          <mxGeometry x="780" y="240" width="190" height="400" as="geometry" />
        </mxCell>
        <mxCell id="tXW641NiQ6VJJEoscxrL-40" value="&lt;span style=&quot;font-size: 25px;&quot;&gt;Gold Layer&lt;/span&gt;" style="rounded=1;whiteSpace=wrap;html=1;fillColor=#fff2cc;strokeColor=#d6b656;" vertex="1" parent="1">
          <mxGeometry x="797.5" y="190" width="155" height="40" as="geometry" />
        </mxCell>
        <mxCell id="tXW641NiQ6VJJEoscxrL-41" value="&lt;font style=&quot;font-size: 20px;&quot;&gt;fact_sales&lt;/font&gt;" style="rounded=1;whiteSpace=wrap;html=1;fillColor=#fff2cc;strokeColor=#d6b656;" vertex="1" parent="1">
          <mxGeometry x="802.5" y="290" width="145" height="40" as="geometry" />
        </mxCell>
        <mxCell id="tXW641NiQ6VJJEoscxrL-42" value="&lt;font style=&quot;font-size: 20px;&quot;&gt;dim_customers&lt;/font&gt;" style="rounded=1;whiteSpace=wrap;html=1;fillColor=#fff2cc;strokeColor=#d6b656;" vertex="1" parent="1">
          <mxGeometry x="802.5" y="390" width="145" height="40" as="geometry" />
        </mxCell>
        <mxCell id="tXW641NiQ6VJJEoscxrL-43" value="&lt;font style=&quot;font-size: 20px;&quot;&gt;dim_products&lt;/font&gt;" style="rounded=1;whiteSpace=wrap;html=1;fillColor=#fff2cc;strokeColor=#d6b656;" vertex="1" parent="1">
          <mxGeometry x="802.5" y="520" width="145" height="40" as="geometry" />
        </mxCell>
        <mxCell id="tXW641NiQ6VJJEoscxrL-51" style="rounded=0;orthogonalLoop=1;jettySize=auto;html=1;entryX=0.105;entryY=0.45;entryDx=0;entryDy=0;entryPerimeter=0;jumpStyle=gap;" edge="1" parent="1" source="tXW641NiQ6VJJEoscxrL-30" target="tXW641NiQ6VJJEoscxrL-39">
          <mxGeometry relative="1" as="geometry" />
        </mxCell>
        <mxCell id="tXW641NiQ6VJJEoscxrL-55" value="&lt;b&gt;&lt;font style=&quot;font-size: 32px;&quot;&gt;Data Flow&lt;/font&gt;&lt;/b&gt;" style="text;html=1;align=center;verticalAlign=middle;whiteSpace=wrap;rounded=0;" vertex="1" parent="1">
          <mxGeometry x="15" y="100" width="970" height="50" as="geometry" />
        </mxCell>
        <mxCell id="tXW641NiQ6VJJEoscxrL-56" value="&amp;nbsp;" style="text;html=1;align=center;verticalAlign=middle;whiteSpace=wrap;rounded=0;" vertex="1" parent="1">
          <mxGeometry x="460" y="660" width="60" height="30" as="geometry" />
        </mxCell>
      </root>
    </mxGraphModel>
  </diagram>
</mxfile>
